<svg xmlns="http://www.w3.org/2000/svg" viewBox="0 0 420 360" width="420" height="360" role="img" aria-label="Distance traveled"><line x1="48" y1="48" x2="48" y2="312" stroke="#d8dee5" stroke-width="1" /><line x1="80.4" y1="48" x2="80.4" y2="312" stroke="#d8dee5" stroke-width="1" /><line x1="112.8" y1="48" x2="112.8" y2="312" stroke="#d8dee5" stroke-width="1" /><line x1="145.2" y1="48" x2="145.2" y2="312" stroke="#d8dee5" stroke-width="1" /><line x1="177.6" y1="48" x2="177.6" y2="312" stroke="#d8dee5" stroke-width="1" /><line x1="210" y1="48" x2="210" y2="312" stroke="#d8dee5" stroke-width="1" /><line x1="242.4" y1="48" x2="242.4" y2="312" stroke="#d8dee5" stroke-width="1" /><line x1="274.79999999999995" y1="48" x2="274.79999999999995" y2="312" stroke="#d8dee5" stroke-width="1" /><line x1="307.2" y1="48" x2="307.2" y2="312" stroke="#d8dee5" stroke-width="1" /><line x1="339.6" y1="48" x2="339.6" y2="312" stroke="#d8dee5" stroke-width="1" /><line x1="372" y1="48" x2="372" y2="312" stroke="#d8dee5" stroke-width="1" /><line x1="48" y1="312" x2="372" y2="312" stroke="#d8dee5" stroke-width="1" /><line x1="48" y1="279" x2="372" y2="279" stroke="#d8dee5" stroke-width="1" /><line x1="48" y1="246" x2="372" y2="246" stroke="#d8dee5" stroke-width="1" /><line x1="48" y1="213" x2="372" y2="213" stroke="#d8dee5" stroke-width="1" /><line x1="48" y1="180" x2="372" y2="180" stroke="#d8dee5" stroke-width="1" /><line x1="48" y1="147" x2="372" y2="147" stroke="#d8dee5" stroke-width="1" /><line x1="48" y1="114" x2="372" y2="114" stroke="#d8dee5" stroke-width="1" /><line x1="48" y1="81" x2="372" y2="81" stroke="#d8dee5" stroke-width="1" /><line x1="48" y1="48" x2="372" y2="48" stroke="#d8dee5" stroke-width="1" /><line x1="48" y1="312" x2="372" y2="312" stroke="#1f2933" stroke-width="1.5" /><line x1="48" y1="48" x2="48" y2="312" stroke="#1f2933" stroke-width="1.5" /><line x1="80.4" y1="312" x2="80.4" y2="317" stroke="#1f2933" stroke-width="1.5" /><text x="80.4" y="331" font-family=""Helvetica Neue", "TT Commons Pro", Helvetica, Arial, sans-serif" font-size="13" fill="#1f2933" text-anchor="middle">1</text><line x1="112.8" y1="312" x2="112.8" y2="317" stroke="#1f2933" stroke-width="1.5" /><text x="112.8" y="331" font-family=""Helvetica Neue", "TT Commons Pro", Helvetica, Arial, sans-serif" font-size="13" fill="#1f2933" text-anchor="middle">2</text><line x1="145.2" y1="312" x2="145.2" y2="317" stroke="#1f2933" stroke-width="1.5" /><text x="145.2" y="331" font-family=""Helvetica Neue", "TT Commons Pro", Helvetica, Arial, sans-serif" font-size="13" fill="#1f2933" text-anchor="middle">3</text><line x1="177.6" y1="312" x2="177.6" y2="317" stroke="#1f2933" stroke-width="1.5" /><text x="177.6" y="331" font-family=""Helvetica Neue", "TT Commons Pro", Helvetica, Arial, sans-serif" font-size="13" fill="#1f2933" text-anchor="middle">4</text><line x1="210" y1="312" x2="210" y2="317" stroke="#1f2933" stroke-width="1.5" /><text x="210" y="331" font-family=""Helvetica Neue", "TT Commons Pro", Helvetica, Arial, sans-serif" font-size="13" fill="#1f2933" text-anchor="middle">5</text><line x1="242.4" y1="312" x2="242.4" y2="317" stroke="#1f2933" stroke-width="1.5" /><text x="242.4" y="331" font-family=""Helvetica Neue", "TT Commons Pro", Helvetica, Arial, sans-serif" font-size="13" fill="#1f2933" text-anchor="middle">6</text><line x1="274.79999999999995" y1="312" x2="274.79999999999995" y2="317" stroke="#1f2933" stroke-width="1.5" /><text x="274.79999999999995" y="331" font-family=""Helvetica Neue", "TT Commons Pro", Helvetica, Arial, sans-serif" font-size="13" fill="#1f2933" text-anchor="middle">7</text><line x1="307.2" y1="312" x2="307.2" y2="317" stroke="#1f2933" stroke-width="1.5" /><text x="307.2" y="331" font-family=""Helvetica Neue", "TT Commons Pro", Helvetica, Arial, sans-serif" font-size="13" fill="#1f2933" text-anchor="middle">8</text><line x1="339.6" y1="312" x2="339.6" y2="317" stroke="#1f2933" stroke-width="1.5" /><text x="339.6" y="331" font-family=""Helvetica Neue", "TT Commons Pro", Helvetica, Arial, sans-serif" font-size="13" fill="#1f2933" text-anchor="middle">9</text><line x1="372" y1="312" x2="372" y2="317" stroke="#1f2933" stroke-width="1.5" /><text x="372" y="331" font-family=""Helvetica Neue", "TT Commons Pro", Helvetica, Arial, sans-serif" font-size="13" fill="#1f2933" text-anchor="middle">10</text><line x1="43" y1="279" x2="48" y2="279" stroke="#1f2933" stroke-width="1.5" /><text x="39" y="283" font-family=""Helvetica Neue", "TT Commons Pro", Helvetica, Arial, sans-serif" font-size="13" fill="#1f2933" text-anchor="end">5</text><line x1="43" y1="246" x2="48" y2="246" stroke="#1f2933" stroke-width="1.5" /><text x="39" y="250" font-family=""Helvetica Neue", "TT Commons Pro", Helvetica, Arial, sans-serif" font-size="13" fill="#1f2933" text-anchor="end">10</text><line x1="43" y1="213" x2="48" y2="213" stroke="#1f2933" stroke-width="1.5" /><text x="39" y="217" font-family=""Helvetica Neue", "TT Commons Pro", Helvetica, Arial, sans-serif" font-size="13" fill="#1f2933" text-anchor="end">15</text><line x1="43" y1="180" x2="48" y2="180" stroke="#1f2933" stroke-width="1.5" /><text x="39" y="184" font-family=""Helvetica Neue", "TT Commons Pro", Helvetica, Arial, sans-serif" font-size="13" fill="#1f2933" text-anchor="end">20</text><line x1="43" y1="147" x2="48" y2="147" stroke="#1f2933" stroke-width="1.5" /><text x="39" y="151" font-family=""Helvetica Neue", "TT Commons Pro", Helvetica, Arial, sans-serif" font-size="13" fill="#1f2933" text-anchor="end">25</text><line x1="43" y1="114" x2="48" y2="114" stroke="#1f2933" stroke-width="1.5" /><text x="39" y="118" font-family=""Helvetica Neue", "TT Commons Pro", Helvetica, Arial, sans-serif" font-size="13" fill="#1f2933" text-anchor="end">30</text><line x1="43" y1="81" x2="48" y2="81" stroke="#1f2933" stroke-width="1.5" /><text x="39" y="85" font-family=""Helvetica Neue", "TT Commons Pro", Helvetica, Arial, sans-serif" font-size="13" fill="#1f2933" text-anchor="end">35</text><line x1="43" y1="48" x2="48" y2="48" stroke="#1f2933" stroke-width="1.5" /><text x="39" y="52" font-family=""Helvetica Neue", "TT Commons Pro", Helvetica, Arial, sans-serif" font-size="13" fill="#1f2933" text-anchor="end">40</text><line x1="48" y1="246" x2="372" y2="114" stroke="#0b62a4" stroke-width="2" /><text x="210" y="352" font-family=""Helvetica Neue", "TT Commons Pro", Helvetica, Arial, sans-serif" font-size="14" fill="#1f2933" text-anchor="middle">Time (hours)</text><text x="14" y="180" font-family=""Helvetica Neue", "TT Commons Pro", Helvetica, Arial, sans-serif" font-size="14" fill="#1f2933" text-anchor="middle" transform="rotate(-90, 14, 180)">distance traveled</text><text x="210" y="22" font-family=""Helvetica Neue", "TT Commons Pro", Helvetica, Arial, sans-serif" font-size="15" font-weight="600" fill="#1f2933" text-anchor="middle">Distance traveled</text></svg>